<svg xmlns="http://www.w3.org/2000/svg" viewBox="330 280 260 40" width="480" height="120" preserveAspectRatio="xMidYMid meet">
  <defs>
    <style>
      .cls-1 {
        font-family: FutoGoB101Pr5-Bold-90ms-RKSJ-H, 'A-OTF Futo Go B101 Pr5', system-ui, -apple-system, 'Hiragino Kaku Gothic ProN', Meiryo, sans-serif;
        font-size: 14px;
        font-weight: 700;
      }
      .cls-1, .cls-2 { fill: #231815; }
      .cls-3 { fill: #fff; }
      .cls-4 { fill: none; stroke: #fff; stroke-miterlimit: 10; stroke-width: .99px; }
    </style>
  </defs>

  <!-- 丸アイコン（下側） - y座標を3.59px下に移動 -->
  <circle class="cls-2" cx="349.54" cy="300" r="18.43"/>
  
  <!-- アイコン内テキストと線 - 全体を3.59px下に移動 -->
  <g transform="translate(0, 3.59)">
    <g>
      <path class="cls-3" d="M335.18,302.38c.28.07.6.29.6.74,0,.26-.1.44-.23.57-.2.19-.51.28-.95.28-.24,0-.42-.02-.54-.03v-2.87c.16-.03.39-.06.63-.06.36,0,.6.07.77.21.14.12.22.29.22.5,0,.29-.2.54-.49.64h0ZM334.72,302.28c.39,0,.64-.22.64-.52h0c0-.35-.25-.5-.65-.5-.17,0-.27.01-.33.03v.99h.34ZM334.38,303.7c.07.02.18.02.31.02.4,0,.76-.16.76-.6s-.38-.6-.77-.6h-.31v1.18Z"/>
      <path class="cls-3" d="M336.42,301.49c-.12,0-.21-.10-.21-.22s.09-.21.21-.21.21.10.21.21c0,.13-.09.22-.21.22ZM336.58,303.95h-.32v-2.09h.32v2.09Z"/>
      <path class="cls-3" d="M338.83,303.95h-.39l-.72-1.03-.19.22v.81h-.32v-3.06h.32v1.95h0c.05-.07.12-.17.18-.23l.62-.74h.38l-.79.86.89,1.23Z"/>
      <path class="cls-3" d="M340.59,303.86c-.12.06-.34.13-.65.13-.61,0-.97-.43-.97-1.05,0-.66.37-1.13.93-1.13.64,0,.81.59.81.95,0,.07,0,.13,0,.18h-1.42c0,.58.33.8.71.8.26,0,.42-.05.55-.11l.06.23ZM340.39,302.7c0-.28-.11-.65-.52-.65-.38,0-.55.36-.58.65h1.11Z"/>
      <path class="cls-3" d="M343.38,301.39c-.08-.05-.27-.13-.51-.13-.41,0-.56.25-.56.46,0,.29.18.43.57.6.47.2.71.44.71.86,0,.46-.34.82-.96.82-.26,0-.55-.08-.7-.18l.09-.26c.16.1.39.18.63.18.39,0,.62-.21.62-.52,0-.29-.16-.46-.54-.62-.44-.16-.74-.42-.74-.82,0-.44.36-.77.89-.77.28,0,.49.07.6.14l-.1.26Z"/>
      <path class="cls-3" d="M344.16,301.48l.31-.11v.49h.54v.25h-.54v1.21c0,.26.08.41.28.41.10,0,.16-.01.21-.03l.02.25c-.07.03-.18.05-.31.05-.51,0-.52-.46-.52-.68v-1.2h-.32v-.25h.32v-.38Z"/>
      <path class="cls-3" d="M346.8,303.45c0,.17,0,.35.03.5h-.29l-.03-.27h-.01c-.11.16-.32.31-.62.31-.4,0-.61-.29-.61-.59,0-.5.44-.77,1.21-.77,0-.18,0-.57-.47-.57-.18,0-.37.05-.51.15l-.08-.22c.17-.11.4-.18.64-.18.59,0,.74.42.74.83v.81ZM346.49,302.86c-.39,0-.89.06-.89.5,0,.27.17.39.36.39.31,0,.53-.24.53-.49v-.39Z"/>
      <path class="cls-3" d="M347.49,301.48l.31-.11v.49h.54v.25h-.54v1.21c0,.26.08.41.28.41.10,0,.16-.01.21-.03l.02.25c-.07.03-.18.05-.31.05-.51,0-.52-.46-.52-.68v-1.2h-.32v-.25h.32v-.38Z"/>
      <path class="cls-3" d="M348.92,301.49c-.12,0-.21-.10-.21-.22s.09-.21.21-.21.21.10.21.21c0,.13-.09.22-.21.22ZM349.08,303.95h-.32v-2.09h.32v2.09Z"/>
      <path class="cls-3" d="M351.48,302.89c0,.78-.51,1.11-.98,1.11-.54,0-.95-.40-.95-1.08,0-.71.44-1.11.98-1.11.57,0,.95.44.95,1.08ZM350.52,302.06c-.45,0-.64.44-.64.85,0,.46.26.84.63.84s.64-.38.64-.85c0-.37-.18-.84-.64-.84Z"/>
      <path class="cls-3" d="M353.63,303.95h-.32v-1.23c0-.34-.12-.64-.49-.64-.27,0-.55.23-.55.59v1.28h-.32v-1.55c0-.21,0-.37-.02-.54h.28l.02.34h0c.10-.2.34-.39.67-.39.26,0,.70.16.70.87v1.27Z"/>
      <path class="cls-3" d="M356.86,301.3h-.86v2.65h-.32v-2.65h-.86v-.27h2.04v.27Z"/>
      <path class="cls-3" d="M359.5,302.46c0,1.03-.57,1.53-1.26,1.53-.72,0-1.24-.57-1.24-1.48s.54-1.53,1.27-1.53,1.23.6,1.23,1.48ZM357.33,302.5c0,.62.32,1.23.92,1.23s.92-.59.92-1.25c0-.59-.29-1.23-.91-1.23s-.92.64-.92,1.26Z"/>
      <path class="cls-3" d="M362.04,303.95h-.32l-.93-1.54c-.20-.33-.38-.65-.52-.97h-.02c.03.38.03.72.03,1.22v1.29h-.30v-2.92h.33l.94,1.54c.21.35.38.65.51.95h0c-.03-.41-.04-.76-.04-1.22v-1.27h.30v2.92Z"/>
      <path class="cls-3" d="M365.02,302.46c0,1.03-.57,1.53-1.26,1.53-.72,0-1.24-.57-1.24-1.48s.54-1.53,1.27-1.53,1.23.6,1.23,1.48ZM362.85,302.5c0,.62.32,1.23.92,1.23s.92-.59.92-1.25c0-.59-.29-1.23-.91-1.23s-.92.64-.92,1.26Z"/>
    </g>
    <g>
      <g>
        <path class="cls-3" d="M341.52,294.73c0,.70-.23,1.24-.68,1.61-.40.35-.98.52-1.73.52h-3.82v-.50c.24,0,.41-.03.51-.08.15-.09.22-.25.22-.49v-5.79c0-.34-.24-.51-.73-.51v-.49h3.76c.59,0,1.09.16,1.52.48.44.34.66.80.66,1.37,0,1-.52,1.60-1.55,1.80.53.06.97.26,1.31.62.35.38.52.88.52,1.47ZM339.59,290.84c0-.38-.08-.68-.25-.92-.22-.29-.55-.44-.98-.44-.29,0-.49.04-.59.10-.09.07-.14.21-.14.41v2.43h.94c.29,0,.54-.16.75-.49.17-.32.26-.68.26-1.09ZM339.92,294.67c0-.49-.12-.90-.36-1.23-.24-.33-.56-.49-.98-.49h-.94v2.84c0,.38.31.57.92.57.91,0,1.36-.56,1.36-1.69Z"/>
        <path class="cls-3" d="M352.19,294.75c0,.69-.26,1.24-.78,1.66-.48.40-1.07.60-1.77.60-.24,0-.59-.06-1.03-.18-.45-.12-.68-.18-.71-.18-.17,0-.36.07-.55.21l-.94-2.44.47-.14c.31.54.68,1,1.09,1.36.50.42,1.02.63,1.55.63.34,0,.61-.11.79-.32.22-.21.32-.49.32-.86,0-.47-.34-.89-1.01-1.26-.99-.56-1.59-.93-1.79-1.09-.63-.52-.95-1.10-.95-1.77,0-.63.24-1.14.71-1.55.45-.40.98-.60,1.59-.60.30,0,.64.08,1.02.25.40.15.58.23.54.23.12,0,.27-.09.46-.26l.78,2.33-.46.15c-.36-.62-.67-1.07-.92-1.34-.40-.41-.85-.62-1.35-.62-.56,0-.85.28-.85.85,0,.18.11.39.33.63.19.18.37.33.55.46.33.21.84.52,1.51.92.47.30.82.61,1.02.94.24.37.37.83.37,1.38Z"/>
        <path class="cls-3" d="M363.78,291.22h-.49c-.37-.48-.69-.83-.96-1.06-.43-.35-.86-.52-1.31-.52-.10,0-.17.03-.21.08-.02.06-.03.17-.03.32v5.69c0,.25.05.42.16.50.10.08.31.12.61.12v.51h-3.14v-.51c.31,0,.51-.03.62-.10.11-.08.17-.25.17-.51v-5.69c0-.27-.10-.41-.29-.41-.72,0-1.41.53-2.07,1.58h-.51l.51-2.23h6.42l.53,2.23Z"/>
      </g>
      <line class="cls-4" x1="333.69" y1="298.95" x2="365.38" y2="298.95"/>
    </g>
  </g>

  <!-- テキスト（元の文字列をそのまま） - y座標を3.59px下に移動 -->
  <text class="cls-1" transform="translate(381.66 304.15)"><tspan x="0" y="0">Bike Station TONO</tspan></text>
</svg>